<svg xmlns="http://www.w3.org/2000/svg" viewBox="0 0 512 512">
  <defs><linearGradient id="bg" x1="0" y1="0" x2="1" y2="1">
    <stop offset="0" stop-color="#14A08F"/><stop offset="1" stop-color="#0A4A42"/></linearGradient></defs>
  <rect width="512" height="512" rx="112" fill="url(#bg)"/>
  <g transform="translate(56.0 116.7) scale(0.62893)">
    <path d="M312.90,425.29 C310.64,423.25 306.72,418.86 304.18,415.54 C301.65,412.22 298.88,408.93 298.03,408.23 C295.97,406.53 289.90,407.25 282.33,410.11 C274.09,413.23 271.34,412.33 268.20,405.50 C262.04,392.12 261.63,391.51 258.52,391.16 C256.88,390.98 253.06,391.35 250.02,391.99 C242.01,393.68 239.51,392.45 236.41,385.25 C230.11,370.65 228.49,369.21 220.40,371.02 C217.79,371.61 214.35,371.80 212.76,371.45 C209.08,370.64 206.01,365.75 206.00,360.69 C206.00,357.52 206.81,356.01 210.82,351.69 C213.47,348.84 217.71,343.80 220.23,340.50 C222.75,337.20 226.92,332.48 229.51,330.00 C232.09,327.52 236.81,322.12 240.01,318.00 C243.20,313.88 249.27,307.12 253.49,303.00 C257.72,298.88 263.24,292.80 265.78,289.50 C268.31,286.20 272.76,280.90 275.66,277.73 C282.46,270.28 283.78,266.15 281.64,258.90 C278.68,248.89 277.41,247.67 267.38,245.23 C260.71,243.60 251.53,239.67 230.50,229.45 C215.10,221.96 200.47,214.74 198.00,213.41 C195.53,212.08 184.95,206.76 174.50,201.60 C164.05,196.44 153.25,191.06 150.50,189.65 C147.75,188.24 137.08,182.79 126.78,177.55 C114.19,171.14 107.49,167.16 106.33,165.38 C104.65,162.82 104.67,162.68 106.91,160.87 C108.24,159.80 110.80,159.00 112.91,159.00 C116.69,159.00 119.00,157.60 119.00,155.31 C119.00,154.60 114.84,151.96 109.75,149.44 C99.17,144.20 67.99,123.81 66.21,120.97 C65.56,119.93 65.31,118.35 65.66,117.45 C66.19,116.07 67.32,115.93 73.06,116.51 C81.49,117.35 84.00,116.65 84.00,113.45 C84.00,111.44 81.40,109.29 68.75,100.84 C52.97,90.30 37.70,78.18 35.86,74.74 C35.05,73.23 35.18,72.40 36.40,71.18 C37.85,69.72 38.96,69.82 49.38,72.36 C62.67,75.61 67.35,75.59 67.81,72.29 C68.05,70.60 65.53,67.46 57.31,59.22 C46.57,48.44 41.78,42.47 40.57,38.36 C39.71,35.46 42.49,32.71 45.36,33.60 C46.53,33.97 60.99,41.01 77.47,49.25 C93.96,57.49 112.41,66.03 118.47,68.23 C146.15,78.27 183.73,90.19 202.92,95.00 C219.11,99.06 221.00,99.92 227.79,106.30 C230.93,109.26 235.53,113.06 238.00,114.75 C240.47,116.45 245.43,120.83 249.00,124.50 C252.57,128.17 257.52,132.55 260.00,134.25 C262.48,135.94 267.05,139.73 270.18,142.66 C277.53,149.58 279.88,149.68 287.17,143.41 C290.10,140.89 295.20,137.43 298.50,135.71 C303.95,132.88 305.53,132.56 315.72,132.19 C331.48,131.62 338.30,133.73 347.42,142.00 C356.10,149.87 358.09,149.94 365.82,142.66 C368.95,139.73 373.52,135.94 376.00,134.25 C378.48,132.55 383.43,128.17 387.00,124.49 C390.57,120.82 395.98,116.11 399.00,114.01 C402.02,111.92 406.07,108.54 408.00,106.51 C412.56,101.70 416.56,99.78 427.50,97.09 C442.99,93.30 489.94,78.25 517.53,68.23 C523.59,66.03 542.04,57.49 558.53,49.25 C575.01,41.01 589.47,33.97 590.64,33.60 C592.03,33.17 593.37,33.51 594.43,34.57 C597.63,37.77 594.44,42.92 579.49,58.73 C573.72,64.83 569.00,70.52 569.00,71.38 C569.00,74.33 572.54,75.17 578.74,73.67 C591.83,70.50 597.95,69.72 599.51,71.01 C603.83,74.59 599.88,78.43 573.00,96.80 C566.67,101.12 558.72,106.13 555.32,107.93 C548.71,111.43 547.22,113.35 549.22,115.76 C550.25,117.00 552.19,117.16 560.13,116.64 C568.29,116.10 569.88,116.24 570.38,117.54 C570.70,118.39 570.44,119.93 569.79,120.97 C568.01,123.81 536.83,144.20 526.25,149.44 C521.16,151.96 517.00,154.60 517.00,155.31 C517.00,157.60 519.31,159.00 523.09,159.00 C525.20,159.00 527.76,159.80 529.09,160.87 C533.98,164.83 532.25,165.87 461.87,201.06 C425.53,219.23 394.15,235.20 392.12,236.54 C388.01,239.26 374.07,244.22 365.58,245.98 C361.45,246.84 359.57,247.82 358.19,249.82 C355.43,253.80 353.00,260.60 353.00,264.32 C353.00,267.82 357.09,275.09 360.98,278.50 C362.23,279.60 365.86,283.88 369.04,288.00 C372.21,292.12 378.27,298.88 382.50,303.00 C386.73,307.12 392.80,313.88 396.00,318.00 C399.19,322.12 404.37,327.98 407.50,331.00 C415.03,338.28 427.28,352.69 429.35,356.70 C431.73,361.32 431.39,364.53 428.13,368.18 C425.01,371.67 422.07,372.14 412.93,370.56 C406.63,369.48 403.40,372.27 401.99,380.00 C400.84,386.26 398.56,389.89 394.54,391.86 C392.28,392.97 390.71,393.00 386.11,392.02 C383.00,391.36 379.12,390.98 377.48,391.16 C374.37,391.51 373.96,392.12 367.80,405.50 C364.66,412.33 361.91,413.23 353.67,410.11 C346.10,407.25 340.03,406.53 337.97,408.23 C337.12,408.93 334.35,412.22 331.82,415.54 C326.95,421.91 319.68,429.00 318.00,429.00 C317.45,429.00 315.16,427.33 312.90,425.29 z M323.60,201.25 C329.52,190.76 330.86,189.21 336.20,186.68 C344.02,182.98 348.00,178.02 348.00,172.00 C348.00,168.25 346.43,165.00 344.62,165.00 C343.90,165.00 340.29,167.93 336.61,171.50 C332.93,175.07 329.50,178.00 328.99,178.00 C328.48,178.00 326.47,180.49 324.52,183.54 C322.57,186.58 320.28,189.34 319.42,189.67 C317.02,190.59 313.64,188.28 310.95,183.86 C308.20,179.35 294.66,167.00 292.47,167.00 C289.94,167.00 287.69,171.70 288.33,175.64 C289.11,180.46 291.29,182.65 298.80,186.21 C305.24,189.26 306.28,190.41 312.40,201.25 C314.64,205.22 315.56,206.00 318.00,206.00 C320.44,206.00 321.36,205.22 323.60,201.25 z" fill="#fff"/>
  </g>
</svg>
